<svg xmlns="http://www.w3.org/2000/svg" viewBox="0 0 187.83 64">
  <defs>
    <style>
      .cls-1 {
        fill: #5386c5;
      }

      .cls-2 {
        fill: #f5bb41;
      }

      .cls-3 {
        fill: #50c1e9;
      }

      .cls-4 {
        fill: #3aafd9;
      }

      .cls-5 {
        fill: #41bc9d;
      }
    </style>
  </defs>
  <g id="Group_564" data-name="Group 564" transform="translate(0.036 -0.1)">
    <g id="Group_562" data-name="Group 562" transform="translate(-0.036 0.1)">
      <path id="Path_336" data-name="Path 336" class="cls-1" d="M48.9,16.476a10.148,10.148,0,0,1-6.244.589,10.636,10.636,0,0,1-8.129-8.129,10.148,10.148,0,0,1,.589-6.244.716.716,0,0,0-.471-1.06A26.211,26.211,0,0,0,25.571.1C10.491.1-.818,13.059.006,28.021c.118,1.414.236,2.827.471,4.241L2.009,30.73l3.652-3.652,6.715-6.715a2.062,2.062,0,0,1,2.945,0l8.247,8.247a2.062,2.062,0,0,0,2.945,0l3.416-3.416,6.715-6.715a2.062,2.062,0,0,1,2.945,0l1.3,1.3,5.419,5.419,5.066,5.066a30.027,30.027,0,0,0,.236-4.595,24.909,24.909,0,0,0-1.532-8.836A.955.955,0,0,0,48.9,16.476Z" transform="translate(0.036 -0.1)"/>
      <path id="Path_337" data-name="Path 337" class="cls-2" d="M45.284,5.455a7.153,7.153,0,0,1-.589,4.712,8.363,8.363,0,0,1-1.178,1.649,7.563,7.563,0,0,1-1.532,1.178,6.728,6.728,0,0,1-9.071-9.071,7.563,7.563,0,0,1,1.178-1.532,5.31,5.31,0,0,1,1.649-1.178A6.72,6.72,0,0,1,40.336.625,6.3,6.3,0,0,1,45.284,5.455Z" transform="translate(5.77 -0.035)"/>
      <g id="Group_560" data-name="Group 560" transform="translate(5.815 44.65)">
        <path id="Path_338" data-name="Path 338" class="cls-3" d="M36.411,47a63.029,63.029,0,0,1-9.425,7.775,5.691,5.691,0,0,1-6.362,0A63.029,63.029,0,0,1,11.2,47h0a11.129,11.129,0,0,1,4.83,1.532,14.907,14.907,0,0,0,7.775,1.885,16.157,16.157,0,0,0,7.775-1.885A11.655,11.655,0,0,1,36.411,47Z" transform="translate(-3.778 -36.397)"/>
        <path id="Path_339" data-name="Path 339" class="cls-4" d="M38.947,38.118h0a12.211,12.211,0,0,0-3.3.353H35.53a18.511,18.511,0,0,0-2.71,1.06,14.907,14.907,0,0,1-7.775,1.885,16.157,16.157,0,0,1-7.775-1.885A11.481,11.481,0,0,0,11.262,38,20.517,20.517,0,0,0,4.9,39.06a43.739,43.739,0,0,0,3.3,4.83,2.113,2.113,0,0,1,.589.825h0a12.115,12.115,0,0,1,2.121-.118,16.157,16.157,0,0,1,7.775,1.885,11.481,11.481,0,0,0,6.008,1.532A10.854,10.854,0,0,0,30.7,46.482,14.907,14.907,0,0,1,38.476,44.6a11.454,11.454,0,0,1,2.121.118h0a2.113,2.113,0,0,0,.589-.825c1.3-1.649,2.356-3.3,3.416-4.948A24.009,24.009,0,0,0,38.947,38.118Z" transform="translate(-4.9 -38)"/>
      </g>
      <g id="Group_561" data-name="Group 561" transform="translate(1.574 25.785)">
        <path id="Path_340" data-name="Path 340" class="cls-5" d="M32.048,38.369c-.118,0-.118.118-.236.118a11.627,11.627,0,0,1-6.126,1.532,11.627,11.627,0,0,1-6.126-1.532A14.907,14.907,0,0,0,11.785,36.6a23.93,23.93,0,0,0-8.247,1.532h0c-.707-1.649-1.414-3.3-2-4.948a2.773,2.773,0,0,1-.236-.942h0L7.544,26a2.139,2.139,0,0,1,2.71-.236l2,1.532a1.953,1.953,0,0,0,2.474,0l2-1.532a2,2,0,0,1,2.71.236Z" transform="translate(-1.3 -21.388)"/>
        <path id="Path_341" data-name="Path 341" class="cls-5" d="M46.1,30.956h0a36.12,36.12,0,0,1-2.71,7.54h0A24.89,24.89,0,0,0,35.5,37.082a14.869,14.869,0,0,0-3.534.353l-7.069-7.069a2.062,2.062,0,0,1,0-2.945l4.712-4.83a2.1,2.1,0,0,1,3.063.118l.471.471a2.062,2.062,0,0,0,2,.707l2.474-.471a2.173,2.173,0,0,1,1.885.589Z" transform="translate(2.792 -21.987)"/>
      </g>
    </g>
    
  </g>
</svg>
